<svg width="342" height="100" fill="none" xmlns="http://www.w3.org/2000/svg"><path d="M3.1 78v-6.4l5.1-1V46L2.5 45v-6.4h15.6l.4 4.9v.8c2-4.3 5-6.4 8.8-6.4a15.5 15.5 0 014.1.5l-1.1 9.8L25 48c-1.5 0-2.7.2-3.7.8-1 .6-1.7 1.4-2.5 2.5v19.3l5.1 1.1V78H3.1zm49.6.8a17.4 17.4 0 01-16.4-9.4c-1.6-3-2.3-6.2-2.3-10V58c0-4 .7-7.4 2.2-10.4 1.4-3 3.5-5.4 6.1-7.2 2.7-1.7 5.8-2.6 9.5-2.5 5.3 0 9.3 1.5 12.2 4.7 2.8 3 4.2 7.4 4.2 13v5.9H45v.2c.1 2.6 1 4.7 2.5 6.4 1.6 1.7 3.7 2.5 6.6 2.5a19.4 19.4 0 0010.3-3l3 6.6a20.7 20.7 0 01-6.2 3.3c-2.5.8-5.3 1.3-8.5 1.3zm-7.6-24.4h13.1v-1c0-2.3-.5-4.2-1.4-5.6-1-1.4-2.6-2-4.9-2-2 0-3.7.7-4.8 2.4a13 13 0 00-2.1 6v.2zm41.2 24.4c-4 0-7-1-9.3-3.2a11 11 0 01-3.5-8.6 11 11 0 014.5-9c3-2.3 7.4-3.5 13.2-3.5h5.3v-3c0-1.8-.6-3.3-1.7-4.5-1.1-1.2-2.8-1.8-5-1.8-1.1 0-2.1.2-3 .5-1 .2-1.8.6-2.5 1.1l-.8 5.2h-7.7l-.1-10.2a27.7 27.7 0 0114.8-4 19 19 0 0112.1 3.7c3 2.4 4.5 5.8 4.5 10.2v17.8l.1 1.5 4.2.6V78H98.2a54 54 0 01-1.4-4.5 15.1 15.1 0 01-4.5 3.8c-1.7 1-3.7 1.5-6 1.5zm2.8-7.9c1.5 0 3-.3 4.2-1a8.3 8.3 0 003.2-2.6V61h-5.3c-2.3 0-4 .6-5.3 1.6a5 5 0 00-1.8 3.9c0 1.4.4 2.5 1.3 3.3 1 .7 2.2 1.1 3.7 1.1zm25.5 7.1v-6.4l5-1v-42l-5.6-1v-6.4h16.3v49.3l5.2 1.1V78h-21zM164.5 67.9c0-1.7-.7-3.2-2-4.4a27.4 27.4 0 00-7-4 41.3 41.3 0 01-7-3.8c-1.2-1-2.2-2-2.8-3.2-.6-1.2-1-2.6-1-4.1 0-3 1.1-5.5 3.3-7.4 2.1-2 4.9-2.9 8.3-2.9 3.6 0 6.5 1 8.7 3.1 2.2 2 3.3 4.8 3.3 8.2h-4c0-2.2-.7-4-2.2-5.4a8 8 0 00-5.8-2.2c-2.4 0-4.2.6-5.6 1.8a5.9 5.9 0 00-2 4.6 5 5 0 001.5 3.8c1 1 3.3 2.3 6.8 4 3.6 1.5 6 2.8 7.4 3.8 1.4 1 2.4 2.2 3 3.4a9 9 0 011.1 4.4c0 3.2-1.1 5.7-3.3 7.6a13 13 0 01-8.7 2.8c-3.8 0-7-1-9.3-3.1-2.4-2-3.5-4.8-3.5-8h4c0 2.3.9 4.2 2.3 5.5 1.5 1.3 3.7 2 6.5 2a9 9 0 005.8-1.8 5.8 5.8 0 002.2-4.7zm17.7 9.4h-4V38.8h4v38.5zm-4.6-49.6c0-.8.3-1.5.7-2 .5-.6 1.1-.9 2-.9.8 0 1.4.3 1.9.9.4.5.7 1.2.7 2s-.3 1.5-.7 2c-.5.6-1.1.9-2 .9-.8 0-1.4-.3-1.9-.8-.4-.6-.7-1.3-.7-2zm19.2 11.1v5.8c2.5-4.3 6-6.5 10.4-6.5 5 0 8.2 2.4 9.6 7 1.2-2.3 2.8-4 4.7-5.2 1.9-1.2 4-1.8 6.2-1.8 7 0 10.5 4.5 10.7 13.4v25.8h-4V51.7c0-3.3-.6-5.8-1.8-7.4-1.2-1.6-3.1-2.4-5.9-2.4-2.4 0-4.5 1-6.1 2.8a11.5 11.5 0 00-3 7v25.6h-4V51.8c0-3.3-.5-5.8-1.8-7.5-1.2-1.6-3.2-2.4-5.8-2.4a8 8 0 00-5.6 2.2 13.1 13.1 0 00-3.4 6.4v26.8h-4V38.8h3.8zm78.2 21c0 6-1 10.5-3.1 13.6-2 3-5.1 4.6-9.3 4.6a11 11 0 01-10-5.3V92h-3.9V38.8h3.7l.1 5.3c2.3-4 5.7-6 10-6 4.2 0 7.3 1.5 9.4 4.4 2 3 3 7.5 3.1 13.5V60zm-4-3.5c0-5-.7-8.6-2.3-10.9-1.5-2.3-3.9-3.5-7.1-3.5-4.2 0-7.2 2.1-9 6.4v20.3a9.2 9.2 0 009 5.8c3.2 0 5.6-1.2 7.1-3.5A20 20 0 00271 60v-3.8zm17.6 21h-4V22.7h4v54.6zm23.6.7c-4.5 0-8-1.5-10.6-4.4a19 19 0 01-3.9-12.7v-4.7c0-5.6 1.2-10 3.7-13.3 2.5-3.2 5.9-4.8 10.2-4.8 4.1 0 7.3 1.4 9.5 4.1 2.2 2.7 3.3 6.9 3.4 12.5v3.7h-22.9v2.2c0 4.4 1 7.8 2.8 10.2a9.6 9.6 0 008 3.6c3.8 0 6.9-1.4 9.2-4.2l2.1 2.7c-2.5 3.4-6.3 5.1-11.5 5.1zm-.6-36.2a8.5 8.5 0 00-7.2 3.3 16.8 16.8 0 00-2.8 9.6h19v-1c-.3-8-3.2-11.9-9-11.9z" fill="#fff"/><circle cx="337" cy="73" r="5" fill="#fff"/></svg>